<?xml version="1.0" encoding="UTF-8"?>
<svg width="23px" height="23px" viewBox="0 0 23 23" version="1.1" xmlns="http://www.w3.org/2000/svg" xmlns:xlink="http://www.w3.org/1999/xlink">
    <!-- Generator: Sketch 57.1 (83088) - https://sketch.com -->
    <title>icon / radius</title>
    <desc>Created with Sketch.</desc>
    <g id="Features" stroke="none" stroke-width="1" fill="none" fill-rule="evenodd" opacity="0.9">
        <g id="Features-D" transform="translate(-522.000000, -3950.000000)">
            <g id="let-your-customers" transform="translate(100.000000, 3752.000000)">
                <g id="Group-9" transform="translate(421.000000, 198.000000)">
                    <g id="icon-/-features-/-radius">
                        <g id="Group-21" stroke-width="1" fill-rule="evenodd" transform="translate(1.000000, 0.000000)">
                            <path d="M6.1499,18 C6.4599,19.69 6.9199,21.24 7.5599,22.45 C5.1599,21.66 3.1299,20.07 1.7799,18 L6.1499,18 Z" id="Fill-1" fill="#DED9FF"></path>
                            <path d="M8.1899,18 L13.8099,18 C13.2099,21.01 12.1799,23 10.9999,23 C9.8199,23 8.7899,21.01 8.1899,18" id="Fill-3" fill="#DED9FF"></path>
                            <path d="M20.2202,18 C18.8702,20.07 16.8402,21.66 14.4402,22.45 C15.0802,21.24 15.5402,19.69 15.8502,18 L20.2202,18 Z" id="Fill-5" fill="#DED9FF"></path>
                            <path d="M7.5601,1.5498 C6.8001,2.9898 6.2901,4.9198 5.9901,6.9998 L1.2001,6.9998 C2.5101,4.4398 4.7901,2.4598 7.5601,1.5498" id="Fill-7" fill="#DED9FF"></path>
                            <path d="M11.96,1.46 C11.33,2.52 11,3.73 11,5 C11,5.69 11.1,6.36 11.29,7 L8.01,7 C8.57,3.44 9.7,1 11,1 C11.33,1 11.66,1.16 11.96,1.46" id="Fill-9" fill="#DED9FF"></path>
                            <path d="M5.6499,12 C5.6499,13.31 5.7199,14.68 5.8699,16 L0.7499,16 C0.2699,14.76 -0.0001,13.41 -0.0001,12 C-0.0001,10.96 0.1399,9.95 0.4199,9 L5.7799,9 C5.6899,10 5.6499,11.02 5.6499,12" id="Fill-11" fill="#DED9FF"></path>
                            <path d="M14.3501,12 C14.3501,13.41 14.2701,14.76 14.1201,16 L7.8801,16 C7.7301,14.76 7.6501,13.41 7.6501,12 C7.6501,10.96 7.6901,9.95 7.7801,9 L12.2601,9 C12.4801,9.32 12.7301,9.62 13.0101,9.91 L14.3401,11.4 C14.3501,11.6 14.3501,11.8 14.3501,12" id="Fill-13" fill="#DED9FF"></path>
                            <path d="M22,12 C22,13.41 21.73,14.76 21.25,16 L16.13,16 C16.23,15.16 16.29,14.31 16.32,13.46 C16.82,13.79 17.4,13.96 18,13.96 C18.82,13.96 19.6,13.64 20.18,13.05 L20.22,13.01 L20.26,12.97 L21.96,11.07 C21.99,11.38 22,11.69 22,12" id="Fill-15" fill="#DED9FF"></path>
                            <path d="M21.54,1.46 C20.56,0.49 19.28,0 18,0 C16.72,0 15.44,0.49 14.46,1.46 C13.83,2.09 13.4,2.85 13.18,3.66 C12.87,4.76 12.95,5.94 13.42,7 C13.65,7.56 14,8.08 14.46,8.54 L16.32,10.62 L17.23,11.64 C17.44,11.85 17.72,11.96 18,11.96 C18.28,11.96 18.56,11.85 18.77,11.64 L21.13,9 L21.54,8.54 C22.52,7.56 23,6.28 23,5 C23,3.72 22.52,2.44 21.54,1.46" id="Fill-17" fill="#F8CDB4"></path>
                            <path d="M20.4976,4.5 C20.4976,5.881 19.3786,7 17.9976,7 C16.6166,7 15.4976,5.881 15.4976,4.5 C15.4976,3.119 16.6166,2 17.9976,2 C19.3786,2 20.4976,3.119 20.4976,4.5" id="Fill-19" fill="#FFFFFF"></path>
                        </g>
                        <rect id="Rectangle-Copy" x="0" y="0" width="24" height="24"></rect>
                    </g>
                </g>
            </g>
        </g>
    </g>
</svg>