<?xml version="1.0" encoding="UTF-8"?>
<svg width="70px" height="75px" viewBox="0 0 70 75" version="1.1" xmlns="http://www.w3.org/2000/svg" xmlns:xlink="http://www.w3.org/1999/xlink">
    <!-- Generator: Sketch 57.1 (83088) - https://sketch.com -->
    <title>@3xlanding-small-illu / 4</title>
    <desc>Created with Sketch.</desc>
    <defs>
        <linearGradient x1="24.3343935%" y1="64.8637835%" x2="75.669398%" y2="35.1376338%" id="linearGradient-1">
            <stop stop-color="#FFFFFF" offset="0%"></stop>
            <stop stop-color="#0008E9" offset="100%"></stop>
        </linearGradient>
        <linearGradient x1="35.3509034%" y1="54.0304972%" x2="64.096238%" y2="36.4298857%" id="linearGradient-2">
            <stop stop-color="#FFFFFF" offset="0%"></stop>
            <stop stop-color="#0008E9" offset="100%"></stop>
        </linearGradient>
        <linearGradient x1="-7.80301709e-15%" y1="50.01026%" x2="99.9560729%" y2="50.01026%" id="linearGradient-3">
            <stop stop-color="#B4B0FF" offset="0%"></stop>
            <stop stop-color="#4B5AED" offset="100%"></stop>
        </linearGradient>
        <linearGradient x1="-0.0833333333%" y1="49.9976831%" x2="100%" y2="49.9976831%" id="linearGradient-4">
            <stop stop-color="#F8BE9C" offset="0%"></stop>
            <stop stop-color="#F5BFA2" offset="100%"></stop>
        </linearGradient>
        <linearGradient x1="0.166455228%" y1="49.9103908%" x2="99.9999339%" y2="49.9103908%" id="linearGradient-5">
            <stop stop-color="#F8DCCC" offset="0%"></stop>
            <stop stop-color="#F5BFA2" offset="100%"></stop>
        </linearGradient>
        <linearGradient x1="-0.0833333333%" y1="49.9969664%" x2="100%" y2="49.9969664%" id="linearGradient-6">
            <stop stop-color="#F8BE9C" offset="0%"></stop>
            <stop stop-color="#F5BFA2" offset="100%"></stop>
        </linearGradient>
        <linearGradient x1="0.249442271%" y1="49.928066%" x2="99.999934%" y2="49.928066%" id="linearGradient-7">
            <stop stop-color="#F8DCCC" offset="0%"></stop>
            <stop stop-color="#F5BFA2" offset="100%"></stop>
        </linearGradient>
        <linearGradient x1="-0.0833333333%" y1="49.9501633%" x2="100%" y2="49.9501633%" id="linearGradient-8">
            <stop stop-color="#F8BE9C" offset="0%"></stop>
            <stop stop-color="#F5BFA2" offset="100%"></stop>
        </linearGradient>
        <linearGradient x1="0.249442271%" y1="49.4150942%" x2="99.999934%" y2="49.4150942%" id="linearGradient-9">
            <stop stop-color="#F8DCCC" offset="0%"></stop>
            <stop stop-color="#F5BFA2" offset="100%"></stop>
        </linearGradient>
        <linearGradient x1="-0.0833333333%" y1="49.7264698%" x2="100%" y2="49.7264698%" id="linearGradient-10">
            <stop stop-color="#F8BE9C" offset="0%"></stop>
            <stop stop-color="#F5BFA2" offset="100%"></stop>
        </linearGradient>
        <linearGradient x1="0.249442271%" y1="49.9904548%" x2="99.999934%" y2="49.9904548%" id="linearGradient-11">
            <stop stop-color="#F8DCCC" offset="0%"></stop>
            <stop stop-color="#F5BFA2" offset="100%"></stop>
        </linearGradient>
    </defs>
    <g id="Landing" stroke="none" stroke-width="1" fill="none" fill-rule="evenodd">
        <g id="Home-D" transform="translate(-1105.000000, -876.000000)">
            <g id="Features" transform="translate(100.000000, 859.000000)">
                <g id="3" transform="translate(842.000000, 0.000000)">
                    <g id="landing-small-illu-/-4" transform="translate(163.000000, 0.000000)">
                        <g id="small-illustrations-15">
                            <g id="Group" transform="translate(0.000000, 17.500000)" fill-rule="nonzero">
                                <g opacity="0.08" transform="translate(0.000000, 33.600000)" fill="url(#linearGradient-1)" id="Path">
                                    <path d="M68.145,18.088 C70.476,19.432 70.483,21.588 68.145,22.988 L39.557,39.592 C36.91665,40.9291913 33.79735,40.9291913 31.157,39.592 L2.338,22.96 C0.007,21.616 -0.007,19.46 2.338,18.06 L30.926,1.456 C33.5658095,0.116547286 36.6861905,0.116547286 39.326,1.456 L68.145,18.088 Z"></path>
                                </g>
                                <path d="M69.881,39.613 C69.8878793,39.6758122 69.8878793,39.7391878 69.881,39.802 C69.8842485,39.8532819 69.8842485,39.9047181 69.881,39.956 C69.8679317,40.0151987 69.851573,40.0736227 69.832,40.131 L69.769,40.278 C69.742907,40.3406958 69.7125008,40.4015081 69.678,40.46 C69.6550194,40.5080944 69.6293109,40.5548372 69.601,40.6 L69.461,40.803 C69.4322154,40.8457104 69.3993983,40.8855597 69.363,40.922 C69.2845958,41.0180104 69.2004414,41.1091778 69.111,41.195 C69.080106,41.2293925 69.0473925,41.262106 69.013,41.293 L68.831,41.44 C68.7781124,41.488129 68.7219802,41.532567 68.663,41.573 L68.453,41.713 C68.376,41.762 68.306,41.818 68.229,41.86 L39.557,58.492 C39.288236,58.640804 39.0099677,58.7717538 38.724,58.884 L38.493,58.975 C38.318,59.038 38.129,59.087 37.94,59.143 C37.751,59.199 37.541,59.248 37.338,59.29 C37.135,59.332 36.862,59.381 36.638,59.416 L36.463,59.416 C36.1305539,59.4523002 35.7964206,59.470993 35.462,59.472 L35.28,59.472 C34.951,59.472 34.622,59.472 34.293,59.423 L34.146,59.423 C33.8235411,59.3875464 33.5033581,59.333793 33.187,59.262 L33.019,59.22 C32.73909,59.1518072 32.4633068,59.06767 32.193,58.968 L32.046,58.919 C31.7331466,58.7979066 31.4290816,58.6552299 31.136,58.492 L2.338,41.86 C1.162,41.16 0.581,40.292 0.581,39.41 L0.581,43.974 C0.581,44.863 1.162,45.752 2.338,46.424 L31.136,63.056 C31.4132643,63.213105 31.7009335,63.3510927 31.997,63.469 L32.046,63.469 L32.193,63.518 L32.725,63.7 L33.019,63.77 L33.187,63.812 L33.341,63.812 C33.537,63.854 33.733,63.889 33.936,63.917 L34.146,63.917 L34.293,63.917 L34.51,63.917 L35.098,63.917 L35.7,63.917 C35.924,63.917 36.141,63.917 36.358,63.875 L36.4,63.875 L36.575,63.875 L37.086,63.805 L37.296,63.749 C37.506,63.707 37.702,63.658 37.898,63.602 L38.213,63.525 L38.451,63.434 L38.689,63.343 C38.9720731,63.2293078 39.2479221,63.0983964 39.515,62.951 L68.159,46.424 L68.229,46.382 C68.285,46.382 68.334,46.312 68.383,46.284 L68.6,46.137 C68.6567375,46.0965209 68.7105386,46.0520765 68.761,46.004 L68.943,45.857 L68.985,45.857 L69.041,45.787 C69.1371298,45.7006514 69.223938,45.6044585 69.3,45.5 C69.3220494,45.485054 69.341054,45.4660494 69.356,45.444 C69.3723779,45.4246863 69.3864712,45.4035464 69.398,45.381 C69.4493634,45.3166957 69.4961453,45.248862 69.538,45.178 L69.601,45.087 C69.601,45.087 69.601,45.087 69.601,45.045 L69.685,44.856 L69.734,44.751 C69.734,44.751 69.734,44.751 69.734,44.709 C69.753573,44.6516227 69.7699317,44.5931987 69.783,44.534 C69.786098,44.4943938 69.786098,44.4546062 69.783,44.415 C69.7796942,44.4035675 69.7796942,44.3914325 69.783,44.38 L69.783,44.191 C69.779958,44.1513917 69.779958,44.1116083 69.783,44.072 L69.783,44.016 L69.783,39.452 C69.819433,39.5032815 69.8521819,39.5570833 69.881,39.613 L69.881,39.613 Z" id="Path" fill="url(#linearGradient-2)" opacity="0.42"></path>
                                <g opacity="0.29" transform="translate(0.000000, 18.900000)" fill="url(#linearGradient-1)" id="Path">
                                    <path d="M68.145,18.088 C70.476,19.432 70.483,21.588 68.145,22.988 L39.557,39.592 C36.91665,40.9291913 33.79735,40.9291913 31.157,39.592 L2.338,22.96 C0.007,21.616 -0.007,19.46 2.338,18.06 L30.926,1.456 C33.5658095,0.116547286 36.6861905,0.116547286 39.326,1.456 L68.145,18.088 Z"></path>
                                </g>
                                <g transform="translate(21.000000, 0.000000)" id="Path">
                                    <path d="M30.226,18.683 C31.3902026,19.4327798 32.1242976,20.695319 32.2,22.078 L32.13,47.166 C32.13,48.412 31.241,48.916 30.156,48.286 L2.289,32.2 C1.13013448,31.4470834 0.401548664,30.1850686 0.329,28.805 L0.406,3.717 C0.406,2.471 1.288,1.967 2.373,2.59 L30.226,18.683 Z" fill="url(#linearGradient-3)"></path>
                                    <path d="M34.174,16.387 L6.3,0.308 C5.89237879,0.0131946481 5.3579268,-0.0402505519 4.9,0.168 L0.98,2.464 C1.43669365,2.25372961 1.97106998,2.30449536 2.38,2.597 L30.233,18.697 C31.3906787,19.4454927 32.1214953,20.7016649 32.2,22.078 L32.13,47.166 C32.1742809,47.6578403 31.9561657,48.1366298 31.556,48.426 L35.49,46.13 C35.8875262,45.8390147 36.1028547,45.3605067 36.057,44.87 L36.134,19.782 C36.0580975,18.4029273 35.330326,17.1423231 34.174,16.387 Z" fill="#4B5AED"></path>
                                </g>
                                <path d="M50.162,26.6 L42.343,22.064 C41.8049152,21.6777374 41.4806046,21.0602501 41.468,20.398 L41.468,17.675 C41.468,17.031 41.86,16.737 42.343,17.017 L50.162,21.525 C50.7020411,21.9127259 51.0265929,22.5332689 51.037,23.198 L51.037,25.9 C51.037,26.6 50.645,26.859 50.162,26.6 Z" id="Path" fill="#FFFFFF"></path>
                                <path d="M32.62,30.31 L24.829,25.802 C24.2917544,25.4522558 23.9536749,24.8671184 23.919,24.227 C23.919,23.646 24.325,23.408 24.829,23.702 L32.62,28.21 C33.1580951,28.558938 33.4964477,29.1445484 33.53,29.785 C33.53,30.359 33.124,30.597 32.62,30.31 Z" id="Path" fill="#FFFFFF"></path>
                                <path d="M36.344,36.652 L24.829,30.002 C24.2909049,29.653062 23.9525523,29.0674516 23.919,28.427 C23.919,27.846 24.325,27.615 24.829,27.902 L36.344,34.552 C36.8820951,34.900938 37.2204477,35.4865484 37.254,36.127 C37.254,36.708 36.848,36.939 36.344,36.652 Z" id="Path" fill="#FFFFFF"></path>
                                <g transform="translate(33.600000, 42.000000)" id="Path">
                                    <path d="M8.547,2.709 L8.547,4.991 C8.47481595,5.73686788 8.01065755,6.38775667 7.329,6.699 C5.46491311,7.65129237 3.25708689,7.65129237 1.393,6.699 C0.692292324,6.39069715 0.214866457,5.72551953 0.147,4.963 L0.147,2.681 C0.21618265,3.44511073 0.696568727,4.11067356 1.4,4.417 C3.26408689,5.36929237 5.47191311,5.36929237 7.336,4.417 C8.01494033,4.10384397 8.47617344,3.45331866 8.547,2.709 L8.547,2.709 Z" fill="url(#linearGradient-4)"></path>
                                    <path d="M7.308,0.98 C8.953,1.925 8.967,3.465 7.308,4.417 C5.44391311,5.36929237 3.23608689,5.36929237 1.372,4.417 C-0.273,3.465 -0.287,1.925 1.372,0.98 C3.23663703,0.0299965382 5.44336297,0.0299965382 7.308,0.98 L7.308,0.98 Z" fill="url(#linearGradient-5)"></path>
                                </g>
                                <g transform="translate(39.900000, 44.800000)" id="Path">
                                    <path d="M9.016,2.709 L9.016,4.991 C8.94381595,5.73686788 8.47965755,6.38775667 7.798,6.699 C5.93146656,7.65138282 3.72153344,7.65138282 1.855,6.699 C1.15701513,6.38873008 0.682544476,5.72393504 0.616,4.963 L0.616,2.681 C0.682544476,3.44193504 1.15701513,4.10673008 1.855,4.417 C3.72153344,5.36938282 5.93146656,5.36938282 7.798,4.417 C8.47965755,4.10575667 8.94381595,3.45486788 9.016,2.709 Z" fill="url(#linearGradient-6)"></path>
                                    <path d="M7.777,0.98 C9.422,1.925 9.436,3.465 7.777,4.417 C5.91046656,5.36938282 3.70053344,5.36938282 1.834,4.417 C0.189,3.465 0.175,1.925 1.834,0.98 C3.70053344,0.0276171781 5.91046656,0.0276171781 7.777,0.98 Z" fill="url(#linearGradient-7)"></path>
                                </g>
                                <g transform="translate(39.900000, 40.600000)" id="Path">
                                    <path d="M9.016,3.101 L9.016,5.39 C8.94381595,6.13586788 8.47965755,6.78675667 7.798,7.098 C5.93064567,8.04696167 3.72235433,8.04696167 1.855,7.098 C1.15907192,6.78892671 0.684981403,6.12734277 0.616,5.369 L0.616,3.073 C0.682544476,3.83393504 1.15701513,4.49873008 1.855,4.809 C3.72235433,5.75796167 5.93064567,5.75796167 7.798,4.809 C8.47965755,4.49775667 8.94381595,3.84686788 9.016,3.101 Z" fill="url(#linearGradient-8)"></path>
                                    <path d="M7.777,1.4 C9.422,2.345 9.436,3.892 7.777,4.844 C5.90964567,5.79296167 3.70135433,5.79296167 1.834,4.844 C0.189,3.899 0.175,2.352 1.834,1.407 C3.69941149,0.452417928 5.90934497,0.449814944 7.777,1.4 Z" fill="url(#linearGradient-9)"></path>
                                </g>
                                <g transform="translate(39.900000, 37.100000)" id="Path">
                                    <path d="M9.016,2.8 L9.016,5.082 C8.94381595,5.82786788 8.47965755,6.47875667 7.798,6.79 C5.93064567,7.73896167 3.72235433,7.73896167 1.855,6.79 C1.15701513,6.47973008 0.682544476,5.81493504 0.616,5.054 L0.616,2.8 C0.684981403,3.55834277 1.15907192,4.21992671 1.855,4.529 C3.72235433,5.47796167 5.93064567,5.47796167 7.798,4.529 C8.48576632,4.21409434 8.95102866,3.55363573 9.016,2.8 Z" fill="url(#linearGradient-10)"></path>
                                    <path d="M7.777,1.064 C9.422,2.016 9.436,3.556 7.777,4.508 C5.90964567,5.45696167 3.70135433,5.45696167 1.834,4.508 C0.189,3.563 0.175,2.023 1.834,1.071 C3.69941149,0.116417928 5.90934497,0.113814944 7.777,1.064 L7.777,1.064 Z" fill="url(#linearGradient-11)"></path>
                                </g>
                            </g>
                            <rect id="Rectangle" x="0.7" y="0.518" width="70" height="90.3"></rect>
                        </g>
                    </g>
                </g>
            </g>
        </g>
    </g>
</svg>