<?xml version="1.0" encoding="UTF-8"?>
<svg width="14px" height="14px" viewBox="0 0 14 14" version="1.1" xmlns="http://www.w3.org/2000/svg" xmlns:xlink="http://www.w3.org/1999/xlink">
    <!-- Generator: sketchtool 63.1 (101010) - https://sketch.com -->
    <title>105F5569-FBC4-4FBF-9481-FD3DBE0A3D32</title>
    <desc>Created with sketchtool.</desc>
    <g id="Landing" stroke="none" stroke-width="1" fill="none" fill-rule="evenodd">
        <g id="Home-D-2" transform="translate(-794.000000, -2499.000000)" fill="#B0B2C1">
            <g id="FAQ" transform="translate(100.000000, 2198.000000)">
                <g id="accordion" transform="translate(0.000000, 271.000000)">
                    <g id="icon-/-plus" transform="translate(689.000000, 25.000000)">
                        <path d="M12,5 C12.5522847,5 13,5.44771525 13,6 L13,11 L18,11 C18.5522847,11 19,11.4477153 19,12 C19,12.5522847 18.5522847,13 18,13 L12.999,13 L13,18 C13,18.5522847 12.5522847,19 12,19 C11.4477153,19 11,18.5522847 11,18 L10.999,13 L6,13 C5.44771525,13 5,12.5522847 5,12 C5,11.4477153 5.44771525,11 6,11 L11,11 L11,6 C11,5.44771525 11.4477153,5 12,5 Z" id="plus"></path>
                    </g>
                </g>
            </g>
        </g>
    </g>
</svg>